<?xml version="1.0" standalone="no"?>
<!DOCTYPE svg PUBLIC "-//W3C//DTD SVG 20010904//EN"
 "http://www.w3.org/TR/2001/REC-SVG-20010904/DTD/svg10.dtd">
<svg version="1.0" xmlns="http://www.w3.org/2000/svg"
 width="504.000000pt" height="504.000000pt" viewBox="0 0 504.000000 504.000000"
 preserveAspectRatio="xMidYMid meet">

<g transform="translate(0.000000,504.000000) scale(0.100000,-0.100000)"
fill="#000000" stroke="none">
<path d="M2387 4812 c-30 -33 -97 -189 -112 -261 -27 -131 -15 -225 45 -353
34 -71 37 -115 14 -160 -19 -37 -13 -44 -99 122 -122 238 -169 296 -246 302
-33 3 -34 2 -37 -39 -4 -56 21 -194 47 -264 30 -79 88 -158 146 -199 27 -19
69 -54 92 -76 50 -48 53 -72 28 -209 -8 -44 -14 -87 -15 -95 0 -23 -15 0 -35
55 -53 146 -153 265 -334 397 -92 67 -95 61 -56 -97 45 -180 128 -306 295
-450 50 -43 95 -88 100 -100 8 -22 -13 -352 -29 -450 l-8 -50 -12 29 c-16 39
-116 209 -160 271 -89 126 -244 295 -272 295 -16 0 -16 -75 1 -161 56 -288
183 -487 366 -570 35 -16 63 -36 66 -46 6 -22 -7 -391 -14 -398 -3 -3 -16 10
-29 28 -86 119 -275 299 -419 396 -80 54 -193 121 -205 121 -25 0 67 -190 164
-335 123 -187 237 -276 377 -296 103 -15 111 -17 119 -36 12 -32 61 -384 54
-389 -4 -2 -92 81 -196 185 -182 183 -191 190 -283 234 -111 54 -168 69 -232
65 l-46 -3 115 -138 c136 -163 247 -258 379 -323 51 -24 125 -51 165 -60 107
-22 113 -30 160 -220 45 -179 42 -202 -18 -137 -107 114 -299 245 -521 354
-90 44 -166 78 -169 75 -7 -6 106 -165 170 -240 69 -80 168 -156 263 -204 106
-53 144 -64 239 -71 l80 -6 37 -140 c20 -77 44 -161 53 -187 24 -68 14 -80
-26 -34 -85 98 -119 132 -184 186 -90 73 -194 139 -306 195 -89 45 -281 125
-299 125 -48 0 242 -287 424 -420 76 -55 205 -116 292 -136 119 -27 138 -52
250 -329 103 -253 166 -364 191 -333 11 13 10 17 -143 429 -35 96 -62 182 -59
190 3 8 15 15 26 16 56 5 262 200 368 348 102 144 159 284 132 324 -8 12 -24
3 -83 -45 -199 -161 -357 -341 -425 -484 -40 -84 -41 -85 -48 -78 -7 7 -95
321 -91 325 2 2 30 23 64 46 155 108 362 417 392 584 22 124 -7 136 -103 41
-129 -128 -282 -345 -336 -476 -19 -46 -37 -79 -41 -75 -4 4 -12 33 -18 63 -6
30 -22 101 -35 158 -19 76 -22 106 -13 113 6 5 36 25 66 45 80 53 109 83 235
245 152 194 236 336 222 373 -9 22 -46 20 -111 -4 -40 -15 -69 -36 -108 -79
-101 -108 -255 -325 -312 -438 -14 -29 -31 -53 -36 -53 -5 0 -11 15 -14 33
-24 159 -46 328 -46 354 0 26 3 30 20 26 60 -16 216 76 274 161 54 79 242 516
232 541 -11 29 -47 14 -114 -46 -143 -131 -254 -262 -379 -449 l-42 -63 2 155
c2 185 -2 177 131 241 57 27 113 64 150 97 51 47 67 73 131 204 84 171 118
256 103 256 -27 0 -150 -76 -209 -129 -36 -33 -112 -116 -169 -186 -57 -69
-107 -122 -111 -118 -4 4 -4 31 1 58 4 28 11 130 15 229 8 208 7 204 111 230
99 25 138 51 253 172 85 89 109 121 145 198 52 108 72 163 63 172 -11 11 -102
-32 -190 -89 -101 -66 -221 -177 -284 -263 -31 -42 -49 -60 -54 -52 -10 18 8
182 26 243 23 76 51 101 142 128 67 20 107 41 173 92 83 64 232 224 270 289
45 80 33 88 -72 46 -181 -72 -281 -133 -392 -239 l-79 -76 8 50 c3 28 18 77
32 110 103 243 120 422 53 556 -32 64 -57 99 -70 99 -4 0 -14 -8 -23 -18z m96
-180 c18 -119 -12 -298 -71 -420 -9 -20 -21 -37 -27 -39 -15 -4 -54 59 -71
113 -19 64 -18 240 2 317 16 63 43 122 76 170 l20 28 30 -48 c22 -34 34 -70
41 -121z m-414 -270 c95 -99 220 -336 221 -420 0 -30 -2 -33 -22 -27 -123 37
-254 239 -277 425 -13 101 -2 104 78 22z m811 -89 c0 -28 -195 -212 -293 -277
-83 -55 -184 -103 -194 -92 -12 12 9 55 54 111 57 71 194 176 290 223 37 19
75 38 83 42 27 16 60 11 60 -7z m-951 -322 c69 -47 144 -128 190 -204 58 -98
111 -277 82 -277 -17 0 -126 89 -162 132 -84 102 -134 193 -168 301 -19 62
-20 87 -5 87 3 0 31 -18 63 -39z m867 -85 c3 -8 -6 -32 -20 -55 -14 -22 -26
-44 -26 -47 0 -13 -82 -116 -162 -203 -79 -86 -162 -141 -213 -141 -11 0 -27
-6 -33 -12 -10 -10 -15 -10 -22 2 -5 8 -10 18 -10 22 0 3 37 55 83 115 90 116
210 228 317 293 72 44 78 46 86 26z m-940 -529 c114 -120 246 -331 294 -472
37 -108 24 -118 -79 -57 -112 65 -201 192 -260 368 -32 95 -52 234 -34 234 6
0 41 -33 79 -73z m810 -149 c-84 -222 -168 -333 -305 -401 -82 -41 -114 -47
-104 -19 22 63 212 303 315 399 37 34 105 83 115 83 2 0 -8 -28 -21 -62z m64
-325 c0 -8 -8 -27 -18 -41 -11 -15 -61 -119 -113 -232 -57 -126 -107 -220
-128 -243 -34 -38 -206 -131 -223 -121 -16 10 -7 42 46 149 66 134 136 227
295 391 113 117 141 136 141 97z m-1010 -182 c134 -99 267 -224 356 -334 67
-83 83 -125 42 -113 -13 4 -47 14 -77 22 -117 32 -227 115 -326 246 -42 57
-108 177 -129 235 -14 39 -13 41 2 36 9 -4 69 -45 132 -92z m1094 -348 c-33
-137 -315 -496 -441 -562 -21 -11 -23 -9 -23 13 0 37 84 196 152 288 102 138
260 285 311 288 4 0 4 -12 1 -27z m-1147 -122 c104 -41 189 -106 347 -263 107
-106 137 -141 128 -150 -25 -25 -160 29 -277 111 -124 87 -258 223 -304 309
-11 20 -9 22 11 22 13 -1 55 -13 95 -29z m1193 -296 c0 -65 -97 -256 -202
-398 -52 -70 -194 -207 -215 -207 -8 0 -9 9 -3 30 16 56 131 265 193 352 63
87 205 248 219 248 4 0 8 -11 8 -25z m-1080 -216 c131 -64 299 -178 434 -293
54 -46 57 -51 38 -59 -47 -21 -226 51 -351 141 -81 57 -171 148 -205 206 -14
25 -26 47 -26 50 0 6 41 -11 110 -45z m1260 -251 c0 -80 -251 -402 -394 -506
-28 -20 -55 -42 -59 -49 -12 -20 -27 -16 -27 7 0 66 190 338 314 450 56 51
147 120 157 120 5 0 9 -10 9 -22z m-1220 -117 c170 -74 333 -185 466 -317 l79
-78 -34 -4 c-26 -3 -60 10 -144 53 -210 108 -395 247 -469 354 -30 42 -30 43
-7 36 13 -4 62 -24 109 -44z"/>
</g>
</svg>
